# xmcd
#
# Track frame offsets:
#	150
#	20373
#	41233
#	57790
#	84490
#	102882
#	128391
#	147711
#	181855
#	212474
#	231296
#	252327
#
# Disc length: 3732 seconds
#
# Revision: 4
# Processed by: cddbd v1.5.2PL0 Copyright (c) Steve Scherf et al.
# Submitted via: audiograbber 1.83.01
#
DISCID=9e0e920c
DTITLE=Tarja - Act I (Live) [2CD] [CD 2)
DYEAR=2012
DGENRE=Symphonic Rock
TTITLE0=Boy And The Ghost (Live 30./31.03.2012 in Rosario, Argentinia)
TTITLE1=Lost Northern Star (Live 30./31.03.2012 in Rosario, Argentinia)
TTITLE2=Ciaran's Well (Live 30./31.03.2012 in Rosario, Argentinia)
TTITLE3=Tired Of Being Alone (Live 30./31.03.2012 in Rosario, Argentinia)
TTITLE4=Where Were You Last Night - Heaven Is A Place On Earth - Livin' On A Pr
TTITLE4=ayer (Live 30./31.03.2012 in Rosario, Argentinia)
TTITLE5=Underneath (Live 30./31.03.2012 in Rosario, Argentinia)
TTITLE6=Oasis - The Archive Of Lost Dreams (Live 30./31.03.2012 in Rosario, Arg
TTITLE6=entinia)
TTITLE7=Crimson Deep (Live 30./31.03.2012 in Rosario, Argentinia)
TTITLE8=Toccata And Fugue D-Minor (BWV 565) - The Phantom Of The Opera (Live 30
TTITLE8=/31.03.2012 in Rosario, Argentinia)
TTITLE9=Die Alive (Live 30./31.03.2012 in Rosario, Argentinia)
TTITLE10=Until My Last Breath (Live 30./31.03.2012 in Rosario, Argentinia)
TTITLE11=Over The Hills And Far Away (Live 30./31.03.2012 in Rosario, Argentini
TTITLE11=a)
EXTD=YEAR: 2012\n\nMARO\n
EXTT0=
EXTT1=
EXTT2=
EXTT3=
EXTT4=
EXTT5=
EXTT6=
EXTT7=
EXTT8=
EXTT9=
EXTT10=
EXTT11=
PLAYORDER=
